<svg viewBox="0 0 1280 520" preserveAspectRatio="xMidYMid slice" xmlns="http://www.w3.org/2000/svg" width="100%" height="100%">
  <rect width="1280" height="520" fill="#020c04"/>
  <defs>
    <radialGradient id="rg6" cx="50%" cy="50%" r="75%"><stop offset="0%" stop-color="#061a09"/><stop offset="100%" stop-color="#010602"/></radialGradient>
  </defs>
  <rect width="1280" height="520" fill="url(#rg6)"/>
  <circle cx="640" cy="260" r="290" fill="#030e05" stroke="#166534" stroke-width="1" opacity=".2"/>
  <g opacity=".88">
    <g transform="translate(300,220)">
      <rect x="-70" y="-24" width="140" height="48" rx="24" fill="#14532d" stroke="#4ade80" stroke-width="2"/>
      <rect x="-70" y="-24" width="140" height="48" rx="24" fill="none" stroke="#22c55e" stroke-width="1" opacity=".5"/>
      <ellipse cx="0" cy="0" rx="35" ry="14" fill="#052e16" stroke="#86efac" stroke-width="1"/>
      <path d="M-15,0 C-10,-8 5,-8 10,0 C15,8 0,8 -5,0" stroke="#4ade80" stroke-width="1" fill="none" opacity=".7"/>
      <g fill="#86efac" opacity=".7">
        <circle cx="-40" cy="-8" r="3"/><circle cx="-50" cy="5" r="2.5"/><circle cx="-35" cy="12" r="2.5"/>
        <circle cx="40" cy="-8" r="3"/><circle cx="50" cy="5" r="2.5"/><circle cx="38" cy="12" r="2.5"/>
      </g>
      <path d="M-70,0 C-100,-20 -130,0 -160,-20 C-190,-40 -210,-20 -240,-30" stroke="#4ade80" stroke-width="1.5" fill="none" opacity=".7"/>
      <path d="M-70,-5 C-105,-30 -135,-15 -165,-35" stroke="#22c55e" stroke-width="1" fill="none" opacity=".5"/>
      <path d="M70,0 C100,20 130,0 160,20 C190,40 210,20 240,30" stroke="#4ade80" stroke-width="1.5" fill="none" opacity=".7"/>
      <g stroke="#86efac" stroke-width="0.8" opacity=".5">
        <line x1="-30" y1="-24" x2="-28" y2="-40"/><line x1="-10" y1="-24" x2="-8" y2="-42"/>
        <line x1="10" y1="-24" x2="12" y2="-41"/><line x1="30" y1="-24" x2="32" y2="-40"/>
        <line x1="-30" y1="24" x2="-28" y2="40"/><line x1="10" y1="24" x2="12" y2="41"/>
      </g>
    </g>
    <g transform="translate(700,350)">
      <rect x="-90" y="-22" width="90" height="44" rx="22" fill="#14532d" stroke="#4ade80" stroke-width="2" opacity=".85"/>
      <rect x="0" y="-22" width="90" height="44" rx="22" fill="#14532d" stroke="#4ade80" stroke-width="2" opacity=".85"/>
      <line x1="0" y1="-22" x2="0" y2="22" stroke="#86efac" stroke-width="2.5" stroke-dasharray="4,3" opacity=".9"/>
      <ellipse cx="-35" cy="0" rx="18" ry="8" fill="#052e16" stroke="#86efac" stroke-width="1" opacity=".8"/>
      <ellipse cx="35" cy="0" rx="18" ry="8" fill="#052e16" stroke="#86efac" stroke-width="1" opacity=".8"/>
      <text x="0" y="40" text-anchor="middle" fill="#4ade80" font-size="10" font-family="monospace" opacity=".6">binary fission</text>
    </g>
    <g transform="translate(1060,180)" fill="#065f46" stroke="#34d399" stroke-width="1.5" opacity=".8">
      <circle cx="0" cy="0" r="24"/><circle cx="44" cy="8" r="24"/><circle cx="22" cy="38" r="24"/>
      <circle cx="-10" cy="44" r="20"/><circle cx="54" cy="40" r="20"/>
      <g fill="#022c22" opacity=".8">
        <circle cx="0" cy="0" r="8"/><circle cx="44" cy="8" r="8"/><circle cx="22" cy="38" r="8"/>
      </g>
    </g>
  </g>
  <g transform="translate(1050,80)" opacity=".8">
    <polygon points="0,-44 38,-22 38,22 0,44 -38,22 -38,-22" fill="#1e1b4b" stroke="#818cf8" stroke-width="2"/>
    <polygon points="0,-36 30,-18 30,18 0,36 -30,18 -30,-18" fill="none" stroke="#6366f1" stroke-width="1" opacity=".5"/>
    <ellipse cx="0" cy="0" rx="18" ry="24" fill="#312e81" opacity=".7"/>
    <rect x="-12" y="44" width="24" height="10" rx="3" fill="#4338ca" stroke="#818cf8" stroke-width="1"/>
    <rect x="-8" y="54" width="16" height="50" fill="#1e1b4b" stroke="#6366f1" stroke-width="1.5"/>
    <rect x="-20" y="104" width="40" height="10" rx="3" fill="#4338ca" stroke="#818cf8" stroke-width="1.5"/>
    <g stroke="#818cf8" stroke-width="1.2">
      <line x1="-20" y1="114" x2="-45" y2="145"/><line x1="20" y1="114" x2="45" y2="145"/>
      <line x1="-20" y1="114" x2="-50" y2="135"/><line x1="20" y1="114" x2="50" y2="135"/>
      <line x1="-20" y1="114" x2="-35" y2="150"/><line x1="20" y1="114" x2="35" y2="150"/>
    </g>
    <text x="0" y="170" text-anchor="middle" fill="#818cf8" font-size="10" font-family="monospace" opacity=".6">bacteriophage</text>
  </g>
  <g opacity=".3">
    <circle cx="180" cy="420" r="18" fill="#4ade80"/><circle cx="230" cy="435" r="12" fill="#22c55e"/>
    <circle cx="280" cy="418" r="22" fill="#16a34a"/><circle cx="340" cy="438" r="14" fill="#4ade80"/>
    <circle cx="400" cy="422" r="16" fill="#22c55e"/>
  </g>
</svg>
