<svg viewBox="0 0 1280 520" preserveAspectRatio="xMidYMid slice" xmlns="http://www.w3.org/2000/svg" width="100%" height="100%">
  <rect width="1280" height="520" fill="#030d1e"/>
  <rect width="1280" height="520" fill="url(#rg0)"/>
  <defs>
    <radialGradient id="rg0" cx="50%" cy="50%" r="70%"><stop offset="0%" stop-color="#0d2d55"/><stop offset="100%" stop-color="#010812" stop-opacity="0.9"/></radialGradient>
  </defs>
  <circle cx="80" cy="40" r="1" fill="#fff" opacity=".4"/><circle cx="200" cy="80" r="1.2" fill="#fff" opacity=".3"/>
  <circle cx="350" cy="20" r="1" fill="#fff" opacity=".5"/><circle cx="500" cy="60" r="1" fill="#fff" opacity=".3"/>
  <circle cx="700" cy="30" r="1.2" fill="#fff" opacity=".4"/><circle cx="900" cy="15" r="1" fill="#fff" opacity=".3"/>
  <circle cx="1100" cy="50" r="1" fill="#fff" opacity=".5"/><circle cx="1200" cy="90" r="1.2" fill="#fff" opacity=".3"/>
  <ellipse cx="640" cy="490" rx="500" ry="18" fill="#0a2a50" opacity=".5"/>
  <path d="M100,80 C200,180 350,80 450,180 C550,280 700,180 800,280 C900,380 1050,280 1150,380 C1200,430 1230,450 1260,460" stroke="#00c8e6" stroke-width="3.5" fill="none" opacity=".9" stroke-linecap="round"/>
  <path d="M100,460 C200,360 350,460 450,360 C550,260 700,360 800,260 C900,160 1050,260 1150,160 C1200,110 1230,90 1260,80" stroke="#7c3aed" stroke-width="3.5" fill="none" opacity=".9" stroke-linecap="round"/>
  <g opacity=".85">
    <line x1="190" y1="172" x2="190" y2="370" stroke="#4af0ff" stroke-width="2.5" stroke-linecap="round"/>
    <line x1="260" y1="137" x2="260" y2="398" stroke="#60a5fa" stroke-width="2" stroke-linecap="round"/>
    <line x1="330" y1="113" x2="330" y2="415" stroke="#4af0ff" stroke-width="2.5" stroke-linecap="round"/>
    <line x1="400" y1="142" x2="400" y2="388" stroke="#60a5fa" stroke-width="2" stroke-linecap="round"/>
    <line x1="470" y1="175" x2="470" y2="360" stroke="#4af0ff" stroke-width="2.5" stroke-linecap="round"/>
    <line x1="540" y1="222" x2="540" y2="318" stroke="#60a5fa" stroke-width="2" stroke-linecap="round"/>
    <line x1="610" y1="262" x2="610" y2="278" stroke="#4af0ff" stroke-width="3" stroke-linecap="round"/>
    <line x1="680" y1="222" x2="680" y2="318" stroke="#60a5fa" stroke-width="2" stroke-linecap="round"/>
    <line x1="750" y1="175" x2="750" y2="365" stroke="#4af0ff" stroke-width="2.5" stroke-linecap="round"/>
    <line x1="820" y1="140" x2="820" y2="398" stroke="#60a5fa" stroke-width="2" stroke-linecap="round"/>
    <line x1="890" y1="120" x2="890" y2="415" stroke="#4af0ff" stroke-width="2.5" stroke-linecap="round"/>
    <line x1="960" y1="148" x2="960" y2="390" stroke="#60a5fa" stroke-width="2" stroke-linecap="round"/>
    <line x1="1030" y1="182" x2="1030" y2="358" stroke="#4af0ff" stroke-width="2.5" stroke-linecap="round"/>
    <line x1="1100" y1="228" x2="1100" y2="315" stroke="#60a5fa" stroke-width="2" stroke-linecap="round"/>
  </g>
  <g fill="#00c8e6">
    <circle cx="190" cy="172" r="6"/><circle cx="260" cy="137" r="5"/><circle cx="330" cy="113" r="6"/>
    <circle cx="400" cy="142" r="5"/><circle cx="470" cy="175" r="6"/><circle cx="540" cy="222" r="5"/>
    <circle cx="610" cy="262" r="6"/><circle cx="680" cy="222" r="5"/><circle cx="750" cy="175" r="6"/>
    <circle cx="820" cy="140" r="5"/><circle cx="890" cy="120" r="6"/><circle cx="960" cy="148" r="5"/>
    <circle cx="1030" cy="182" r="6"/><circle cx="1100" cy="228" r="5"/>
  </g>
  <g fill="#a78bfa">
    <circle cx="190" cy="370" r="6"/><circle cx="260" cy="398" r="5"/><circle cx="330" cy="415" r="6"/>
    <circle cx="400" cy="388" r="5"/><circle cx="470" cy="360" r="6"/><circle cx="540" cy="318" r="5"/>
    <circle cx="610" cy="278" r="6"/><circle cx="680" cy="318" r="5"/><circle cx="750" cy="365" r="6"/>
    <circle cx="820" cy="398" r="5"/><circle cx="890" cy="415" r="6"/><circle cx="960" cy="390" r="5"/>
    <circle cx="1030" cy="358" r="6"/><circle cx="1100" cy="315" r="5"/>
  </g>
  <g fill="none" opacity=".35">
    <polygon points="80,200 104,213 104,240 80,253 56,240 56,213" stroke="#00c8e6" stroke-width="1.5"/>
    <text x="80" y="233" text-anchor="middle" fill="#00c8e6" font-size="9" font-family="monospace" opacity=".8">A</text>
    <polygon points="1200,280 1224,293 1224,320 1200,333 1176,320 1176,293" stroke="#a78bfa" stroke-width="1.5"/>
    <text x="1200" y="313" text-anchor="middle" fill="#a78bfa" font-size="9" font-family="monospace" opacity=".8">G</text>
    <polygon points="640,60 664,73 664,100 640,113 616,100 616,73" stroke="#60a5fa" stroke-width="1.5"/>
    <text x="640" y="93" text-anchor="middle" fill="#60a5fa" font-size="9" font-family="monospace" opacity=".8">C</text>
  </g>
  <circle cx="150" cy="450" r="3" fill="#00c8e6" opacity=".5"/>
  <circle cx="1100" cy="80" r="3" fill="#a78bfa" opacity=".5"/>
  <circle cx="950" cy="470" r="2.5" fill="#60a5fa" opacity=".4"/>
  <circle cx="320" cy="490" r="2" fill="#00c8e6" opacity=".4"/>
</svg>
