<svg viewBox="0 0 1280 520" preserveAspectRatio="xMidYMid slice" xmlns="http://www.w3.org/2000/svg" width="100%" height="100%">
  <rect width="1280" height="520" fill="#1a0a20"/>
  <defs>
    <radialGradient id="rg1" cx="50%" cy="50%" r="75%"><stop offset="0%" stop-color="#2d1040"/><stop offset="100%" stop-color="#0a0415"/></radialGradient>
    <linearGradient id="hestain" x1="0%" y1="0%" x2="100%" y2="100%"><stop offset="0%" stop-color="#ec4899"/><stop offset="50%" stop-color="#7c3aed"/><stop offset="100%" stop-color="#ec4899"/></linearGradient>
  </defs>
  <rect width="1280" height="520" fill="url(#rg1)"/>
  <circle cx="640" cy="260" r="310" fill="none" stroke="#a855f7" stroke-width="1" opacity=".15"/>
  <circle cx="640" cy="260" r="280" fill="none" stroke="#9333ea" stroke-width=".5" opacity=".1"/>
  <g opacity=".9">
    <g fill="#b45a8c" stroke="#e879b8" stroke-width="1.2">
      <rect x="160" y="80" width="42" height="90" rx="4"/><ellipse cx="181" cy="140" rx="12" ry="16" fill="#7c2d6e" stroke="#c84da0"/>
      <rect x="204" y="80" width="42" height="90" rx="4"/><ellipse cx="225" cy="140" rx="12" ry="16" fill="#7c2d6e" stroke="#c84da0"/>
      <rect x="248" y="80" width="42" height="90" rx="4"/><ellipse cx="269" cy="140" rx="12" ry="16" fill="#7c2d6e" stroke="#c84da0"/>
      <rect x="292" y="80" width="42" height="90" rx="4"/><ellipse cx="313" cy="140" rx="12" ry="16" fill="#7c2d6e" stroke="#c84da0"/>
      <rect x="336" y="80" width="42" height="90" rx="4"/><ellipse cx="357" cy="140" rx="12" ry="16" fill="#7c2d6e" stroke="#c84da0"/>
      <rect x="380" y="80" width="42" height="90" rx="4"/><ellipse cx="401" cy="140" rx="12" ry="16" fill="#7c2d6e" stroke="#c84da0"/>
      <rect x="424" y="80" width="42" height="90" rx="4"/><ellipse cx="445" cy="140" rx="12" ry="16" fill="#7c2d6e" stroke="#c84da0"/>
      <line x1="160" y1="170" x2="466" y2="170" stroke="#f0abdc" stroke-width="3" opacity=".6" stroke-linecap="round"/>
    </g>
    <g fill="#6366f1" stroke="#818cf8" stroke-width="1">
      <ellipse cx="200" cy="240" rx="28" ry="18"/><ellipse cx="200" cy="240" rx="10" ry="8" fill="#312e81"/>
      <ellipse cx="310" cy="290" rx="32" ry="20"/><ellipse cx="310" cy="290" rx="11" ry="9" fill="#312e81"/>
      <ellipse cx="420" cy="250" rx="26" ry="17"/><ellipse cx="420" cy="250" rx="9" ry="8" fill="#312e81"/>
      <ellipse cx="380" cy="330" rx="30" ry="19"/><ellipse cx="380" cy="330" rx="10" ry="8" fill="#312e81"/>
      <ellipse cx="260" cy="360" rx="28" ry="18"/><ellipse cx="260" cy="360" rx="9" ry="7" fill="#312e81"/>
      <ellipse cx="160" cy="320" rx="26" ry="16"/><ellipse cx="160" cy="320" rx="9" ry="7" fill="#312e81"/>
      <path d="M160,220 C220,230 280,215 340,225 C400,235 450,220 480,228" stroke="#e0c8f0" stroke-width="1" fill="none" opacity=".3"/>
      <path d="M160,260 C210,268 280,255 330,265 C390,275 440,262 480,268" stroke="#e0c8f0" stroke-width="1" fill="none" opacity=".3"/>
      <path d="M160,300 C230,308 300,295 360,305 C420,315 460,302 480,308" stroke="#e0c8f0" stroke-width="1" fill="none" opacity=".3"/>
    </g>
    <g fill="#ec4899" stroke="#f9a8d4" stroke-width="1.2">
      <ellipse cx="750" cy="140" rx="28" ry="48" opacity=".85"/>
      <ellipse cx="750" cy="125" rx="12" ry="18" fill="#be185d"/>
      <ellipse cx="820" cy="140" rx="28" ry="48" opacity=".85"/>
      <ellipse cx="820" cy="125" rx="12" ry="18" fill="#be185d"/>
      <ellipse cx="890" cy="140" rx="28" ry="48" opacity=".85"/>
      <ellipse cx="890" cy="125" rx="12" ry="18" fill="#be185d"/>
      <ellipse cx="960" cy="140" rx="28" ry="48" opacity=".85"/>
      <ellipse cx="960" cy="125" rx="12" ry="18" fill="#be185d"/>
      <ellipse cx="785" cy="86" rx="20" ry="8" fill="#fce7f3" opacity=".4"/>
      <ellipse cx="855" cy="86" rx="20" ry="8" fill="#fce7f3" opacity=".4"/>
      <ellipse cx="925" cy="86" rx="20" ry="8" fill="#fce7f3" opacity=".4"/>
    </g>
    <circle cx="1080" cy="220" r="80" fill="none" stroke="#f87171" stroke-width="2.5" opacity=".7"/>
    <circle cx="1080" cy="220" r="65" fill="#7f1d1d" opacity=".4" stroke="#ef4444" stroke-width="1.5"/>
    <circle cx="1080" cy="220" r="50" fill="#450a0a" opacity=".6"/>
    <g fill="#dc2626" opacity=".8">
      <ellipse cx="1055" cy="210" rx="14" ry="10"/><ellipse cx="1055" cy="210" rx="7" ry="5" fill="#7f1d1d"/>
      <ellipse cx="1085" cy="225" rx="14" ry="10"/><ellipse cx="1085" cy="225" rx="7" ry="5" fill="#7f1d1d"/>
      <ellipse cx="1100" cy="205" rx="12" ry="9"/><ellipse cx="1100" cy="205" rx="6" ry="4.5" fill="#7f1d1d"/>
      <ellipse cx="1068" cy="238" rx="12" ry="9"/><ellipse cx="1068" cy="238" rx="6" ry="4.5" fill="#7f1d1d"/>
    </g>
    <g fill="none" stroke="#fca5a5" stroke-width="1" opacity=".5">
      <path d="M1005,220 A75,75 0 0,1 1080,145"/>
      <path d="M1080,145 A75,75 0 0,1 1155,220"/>
      <path d="M1005,220 A75,75 0 0,0 1080,295"/>
      <path d="M1080,295 A75,75 0 0,0 1155,220"/>
    </g>
  </g>
  <rect width="1280" height="520" fill="url(#hestain)" opacity=".08"/>
  <line x1="1100" y1="460" x2="1220" y2="460" stroke="#e0c8f0" stroke-width="2" opacity=".4"/>
  <line x1="1100" y1="455" x2="1100" y2="465" stroke="#e0c8f0" stroke-width="2" opacity=".4"/>
  <line x1="1220" y1="455" x2="1220" y2="465" stroke="#e0c8f0" stroke-width="2" opacity=".4"/>
  <text x="1160" y="478" text-anchor="middle" fill="#e0c8f0" font-size="11" font-family="monospace" opacity=".5">50 μm</text>
</svg>
