<svg viewBox="0 0 1280 520" preserveAspectRatio="xMidYMid slice" xmlns="http://www.w3.org/2000/svg" width="100%" height="100%">
  <rect width="1280" height="520" fill="#0e0404"/>
  <defs>
    <radialGradient id="rg5" cx="50%" cy="50%" r="80%"><stop offset="0%" stop-color="#2a0808"/><stop offset="100%" stop-color="#070202"/></radialGradient>
    <radialGradient id="rbc5" cx="42%" cy="38%" r="55%"><stop offset="0%" stop-color="#b91c1c"/><stop offset="100%" stop-color="#7f1d1d"/></radialGradient>
  </defs>
  <rect width="1280" height="520" fill="url(#rg5)"/>
  <g opacity=".88">
    <g fill="url(#rbc5)" stroke="#ef4444" stroke-width="1.5">
      <ellipse cx="110" cy="120" rx="46" ry="34"/><ellipse cx="110" cy="120" rx="23" ry="17" fill="#450a0a"/>
      <ellipse cx="218" cy="100" rx="46" ry="34"/><ellipse cx="218" cy="100" rx="23" ry="17" fill="#450a0a"/>
      <ellipse cx="330" cy="115" rx="46" ry="34"/><ellipse cx="330" cy="115" rx="23" ry="17" fill="#450a0a"/>
      <ellipse cx="440" cy="98" rx="46" ry="34"/><ellipse cx="440" cy="98" rx="23" ry="17" fill="#450a0a"/>
      <ellipse cx="548" cy="112" rx="46" ry="34"/><ellipse cx="548" cy="112" rx="23" ry="17" fill="#450a0a"/>
      <ellipse cx="658" cy="102" rx="46" ry="34"/><ellipse cx="658" cy="102" rx="23" ry="17" fill="#450a0a"/>
      <ellipse cx="766" cy="118" rx="46" ry="34"/><ellipse cx="766" cy="118" rx="23" ry="17" fill="#450a0a"/>
      <ellipse cx="876" cy="100" rx="46" ry="34"/><ellipse cx="876" cy="100" rx="23" ry="17" fill="#450a0a"/>
      <ellipse cx="984" cy="115" rx="46" ry="34"/><ellipse cx="984" cy="115" rx="23" ry="17" fill="#450a0a"/>
      <ellipse cx="1090" cy="102" rx="46" ry="34"/><ellipse cx="1090" cy="102" rx="23" ry="17" fill="#450a0a"/>
      <ellipse cx="1198" cy="118" rx="46" ry="34"/><ellipse cx="1198" cy="118" rx="23" ry="17" fill="#450a0a"/>
    </g>
    <g fill="url(#rbc5)" stroke="#ef4444" stroke-width="1.5">
      <ellipse cx="60" cy="210" rx="46" ry="34"/><ellipse cx="60" cy="210" rx="23" ry="17" fill="#450a0a"/>
      <ellipse cx="168" cy="198" rx="46" ry="34"/><ellipse cx="168" cy="198" rx="23" ry="17" fill="#450a0a"/>
      <ellipse cx="280" cy="212" rx="46" ry="34"/><ellipse cx="280" cy="212" rx="23" ry="17" fill="#450a0a"/>
      <ellipse cx="390" cy="200" rx="46" ry="34"/><ellipse cx="390" cy="200" rx="23" ry="17" fill="#450a0a"/>
      <ellipse cx="500" cy="210" rx="46" ry="34"/><ellipse cx="500" cy="210" rx="23" ry="17" fill="#450a0a"/>
      <ellipse cx="828" cy="200" rx="46" ry="34"/><ellipse cx="828" cy="200" rx="23" ry="17" fill="#450a0a"/>
      <ellipse cx="936" cy="212" rx="46" ry="34"/><ellipse cx="936" cy="212" rx="23" ry="17" fill="#450a0a"/>
      <ellipse cx="1044" cy="200" rx="46" ry="34"/><ellipse cx="1044" cy="200" rx="23" ry="17" fill="#450a0a"/>
      <ellipse cx="1154" cy="210" rx="46" ry="34"/><ellipse cx="1154" cy="210" rx="23" ry="17" fill="#450a0a"/>
      <ellipse cx="1245" cy="200" rx="46" ry="34"/><ellipse cx="1245" cy="200" rx="23" ry="17" fill="#450a0a"/>
    </g>
    <g fill="url(#rbc5)" stroke="#ef4444" stroke-width="1.5">
      <ellipse cx="110" cy="305" rx="46" ry="34"/><ellipse cx="110" cy="305" rx="23" ry="17" fill="#450a0a"/>
      <ellipse cx="218" cy="295" rx="46" ry="34"/><ellipse cx="218" cy="295" rx="23" ry="17" fill="#450a0a"/>
      <ellipse cx="330" cy="308" rx="46" ry="34"/><ellipse cx="330" cy="308" rx="23" ry="17" fill="#450a0a"/>
      <ellipse cx="876" cy="298" rx="46" ry="34"/><ellipse cx="876" cy="298" rx="23" ry="17" fill="#450a0a"/>
      <ellipse cx="984" cy="310" rx="46" ry="34"/><ellipse cx="984" cy="310" rx="23" ry="17" fill="#450a0a"/>
      <ellipse cx="1092" cy="300" rx="46" ry="34"/><ellipse cx="1092" cy="300" rx="23" ry="17" fill="#450a0a"/>
      <ellipse cx="1200" cy="312" rx="46" ry="34"/><ellipse cx="1200" cy="312" rx="23" ry="17" fill="#450a0a"/>
    </g>
    <g fill="url(#rbc5)" stroke="#ef4444" stroke-width="1.5">
      <ellipse cx="60" cy="400" rx="46" ry="34"/><ellipse cx="60" cy="400" rx="23" ry="17" fill="#450a0a"/>
      <ellipse cx="170" cy="415" rx="46" ry="34"/><ellipse cx="170" cy="415" rx="23" ry="17" fill="#450a0a"/>
      <ellipse cx="280" cy="402" rx="46" ry="34"/><ellipse cx="280" cy="402" rx="23" ry="17" fill="#450a0a"/>
      <ellipse cx="392" cy="415" rx="46" ry="34"/><ellipse cx="392" cy="415" rx="23" ry="17" fill="#450a0a"/>
      <ellipse cx="502" cy="400" rx="46" ry="34"/><ellipse cx="502" cy="400" rx="23" ry="17" fill="#450a0a"/>
      <ellipse cx="828" cy="408" rx="46" ry="34"/><ellipse cx="828" cy="408" rx="23" ry="17" fill="#450a0a"/>
      <ellipse cx="938" cy="398" rx="46" ry="34"/><ellipse cx="938" cy="398" rx="23" ry="17" fill="#450a0a"/>
      <ellipse cx="1048" cy="412" rx="46" ry="34"/><ellipse cx="1048" cy="412" rx="23" ry="17" fill="#450a0a"/>
      <ellipse cx="1158" cy="400" rx="46" ry="34"/><ellipse cx="1158" cy="400" rx="23" ry="17" fill="#450a0a"/>
      <ellipse cx="1245" cy="415" rx="46" ry="34"/><ellipse cx="1245" cy="415" rx="23" ry="17" fill="#450a0a"/>
    </g>
  </g>
  <circle cx="640" cy="265" r="72" fill="#1e1b4b" stroke="#6366f1" stroke-width="2.5" opacity=".97"/>
  <circle cx="640" cy="265" r="66" fill="none" stroke="#818cf8" stroke-width="1" opacity=".5"/>
  <g fill="#4338ca" opacity=".6">
    <circle cx="615" cy="250" r="5"/><circle cx="632" cy="242" r="4"/><circle cx="650" cy="248" r="5"/>
    <circle cx="662" cy="262" r="4"/><circle cx="655" cy="278" r="5"/><circle cx="638" cy="285" r="4"/>
    <circle cx="620" cy="278" r="5"/><circle cx="610" cy="264" r="4"/><circle cx="630" cy="265" r="6"/>
  </g>
  <path d="M618,248 C610,238 598,235 596,248 C594,260 604,268 614,264 C620,280 612,292 624,295 C638,298 644,285 640,274 C652,282 664,284 668,272 C672,260 660,252 650,254 C648,240 638,234 628,240Z" fill="#312e81" stroke="#818cf8" stroke-width="1.5"/>
  <g fill="#f97316" stroke="#fb923c" stroke-width="1" opacity=".8">
    <ellipse cx="450" cy="300" rx="12" ry="8"/><ellipse cx="466" cy="308" rx="10" ry="7"/>
    <ellipse cx="456" cy="316" rx="11" ry="7"/>
    <ellipse cx="830" cy="308" rx="12" ry="8"/><ellipse cx="844" cy="300" rx="10" ry="7"/>
  </g>
  <line x1="50" y1="490" x2="150" y2="490" stroke="#f87171" stroke-width="2" opacity=".4"/>
  <text x="100" y="505" text-anchor="middle" fill="#f87171" font-size="11" font-family="monospace" opacity=".5">10 μm</text>
</svg>
