<svg viewBox="0 0 1280 520" preserveAspectRatio="xMidYMid slice" xmlns="http://www.w3.org/2000/svg" width="100%" height="100%">
  <rect width="1280" height="520" fill="#0c0600"/>
  <defs>
    <radialGradient id="rg9" cx="50%" cy="50%" r="75%"><stop offset="0%" stop-color="#1c1000"/><stop offset="100%" stop-color="#060300"/></radialGradient>
  </defs>
  <rect width="1280" height="520" fill="url(#rg9)"/>
  <g stroke="#d97706" stroke-width="0.8" fill="none" opacity=".18">
    <path d="M0,300 C80,280 160,320 240,300 C320,280 380,310 450,290 C510,272 570,300 640,280 C710,260 780,290 850,270 C920,250 990,280 1050,260 C1110,242 1180,270 1280,250"/>
    <path d="M0,400 C100,380 180,420 260,400 C340,380 420,415 500,395 C570,377 640,410 720,390 C800,370 880,405 960,385 C1040,367 1120,400 1200,380 C1240,370 1270,374 1280,370"/>
    <path d="M100,520 C180,490 240,510 310,485 C380,460 450,490 520,468 C590,446 660,475 740,455 C820,435 890,462 970,445"/>
    <path d="M200,200 C280,185 340,210 410,192 C480,174 550,200 630,182 C700,165 760,188 840,172"/>
    <path d="M500,100 C560,85 610,105 670,90 C730,75 790,98 860,85 C920,72 980,92 1050,80"/>
  </g>
  <g transform="translate(360,430)">
    <rect x="-8" y="-280" width="16" height="280" rx="8" fill="#92400e" stroke="#d97706" stroke-width="1.5"/>
    <rect x="-14" y="-30" width="28" height="30" rx="5" fill="#7c2d12" stroke="#fbbf24" stroke-width="1.5"/>
    <circle cx="0" cy="-280" r="52" fill="#a16207" stroke="#fbbf24" stroke-width="2.5"/>
    <circle cx="0" cy="-280" r="44" fill="#92400e" stroke="#d97706" stroke-width="1"/>
    <g stroke="#fbbf24" stroke-width="2" opacity=".9">
      <line x1="0" y1="-332" x2="0" y2="-360"/>
      <line x1="26" y1="-326" x2="38" y2="-352"/>
      <line x1="44" y1="-310" x2="62" y2="-330"/>
      <line x1="52" y1="-288" x2="74" y2="-300"/>
      <line x1="50" y1="-264" x2="72" y2="-268"/>
      <line x1="44" y1="-244" x2="65" y2="-240"/>
      <line x1="28" y1="-232" x2="44" y2="-220"/>
      <line x1="-26" y1="-326" x2="-38" y2="-352"/>
      <line x1="-44" y1="-310" x2="-62" y2="-330"/>
      <line x1="-52" y1="-288" x2="-74" y2="-300"/>
      <line x1="-50" y1="-264" x2="-72" y2="-268"/>
      <line x1="-44" y1="-244" x2="-65" y2="-240"/>
      <line x1="-28" y1="-232" x2="-44" y2="-220"/>
    </g>
    <g stroke="#f59e0b" stroke-width="1.2" opacity=".8">
      <line x1="0" y1="-360" x2="0" y2="-380"/>
      <line x1="38" y1="-352" x2="44" y2="-372"/>
      <line x1="62" y1="-330" x2="72" y2="-348"/>
      <line x1="74" y1="-300" x2="88" y2="-314"/>
      <line x1="72" y1="-268" x2="86" y2="-278"/>
      <line x1="65" y1="-240" x2="76" y2="-246"/>
      <line x1="44" y1="-220" x2="52" y2="-222"/>
      <line x1="-38" y1="-352" x2="-44" y2="-372"/>
      <line x1="-62" y1="-330" x2="-72" y2="-348"/>
      <line x1="-74" y1="-300" x2="-88" y2="-314"/>
      <line x1="-72" y1="-268" x2="-86" y2="-278"/>
      <line x1="-65" y1="-240" x2="-76" y2="-246"/>
      <line x1="-44" y1="-220" x2="-52" y2="-222"/>
    </g>
    <g fill="#b45309" stroke="#fbbf24" stroke-width="0.8">
      <circle cx="0" cy="-390" r="7"/><circle cx="0" cy="-408" r="7"/><circle cx="0" cy="-426" r="6.5"/>
      <circle cx="2" cy="-443" r="6"/><circle cx="-1" cy="-459" r="5.5"/>
      <circle cx="50" cy="-382" r="6.5"/><circle cx="58" cy="-398" r="6.5"/>
      <circle cx="65" cy="-413" r="6"/><circle cx="70" cy="-428" r="5.5"/>
      <circle cx="98" cy="-324" r="6.5"/><circle cx="110" cy="-336" r="6.5"/>
      <circle cx="120" cy="-346" r="6"/>
      <circle cx="96" cy="-288" r="6"/><circle cx="110" cy="-294" r="6"/>
      <circle cx="-50" cy="-382" r="6.5"/><circle cx="-58" cy="-398" r="6.5"/>
      <circle cx="-65" cy="-413" r="6"/><circle cx="-70" cy="-428" r="5.5"/>
      <circle cx="-98" cy="-324" r="6.5"/><circle cx="-110" cy="-336" r="6.5"/>
      <circle cx="-120" cy="-346" r="6"/>
      <circle cx="-96" cy="-288" r="6"/><circle cx="-110" cy="-294" r="6"/>
    </g>
    <text x="0" y="28" text-anchor="middle" fill="#d97706" font-size="11" font-family="monospace" opacity=".7">Aspergillus fumigatus</text>
  </g>
  <g transform="translate(900,80)" opacity=".85">
    <path d="M-180,200 C-180,100 -100,20 0,0 C100,20 180,100 180,200Z" fill="#7c2d12" stroke="#d97706" stroke-width="2"/>
    <path d="M-180,200 C-180,100 -100,20 0,0 C100,20 180,100 180,200" fill="none" stroke="#fbbf24" stroke-width="3"/>
    <g stroke="#b45309" stroke-width="1.5" fill="none" opacity=".8">
      <path d="M-5,200 C-4,150 -2,80 0,30"/><path d="M5,200 C4,150 2,80 0,30"/>
      <path d="M-28,200 C-24,152 -15,86 -5,42"/><path d="M28,200 C24,152 15,86 5,42"/>
      <path d="M-52,200 C-46,154 -32,94 -18,55"/>
      <path d="M52,200 C46,154 32,94 18,55"/>
      <path d="M-76,200 C-68,156 -50,100 -34,68"/>
      <path d="M76,200 C68,156 50,100 34,68"/>
      <path d="M-100,200 C-90,158 -68,108 -52,82"/>
      <path d="M100,200 C90,158 68,108 52,82"/>
      <path d="M-124,200 C-112,162 -88,116 -70,96"/>
      <path d="M124,200 C112,162 88,116 70,96"/>
      <path d="M-148,200 C-135,168 -108,128 -90,110"/>
      <path d="M148,200 C135,168 108,128 90,110"/>
      <path d="M-168,200 C-158,175 -135,145 -114,128"/>
      <path d="M168,200 C158,175 135,145 114,128"/>
    </g>
    <g fill="#a16207" opacity=".4">
      <ellipse cx="-60" cy="210" rx="14" ry="5" transform="rotate(-20,-60,210)"/>
      <ellipse cx="0" cy="215" rx="14" ry="5"/>
      <ellipse cx="60" cy="210" rx="14" ry="5" transform="rotate(20,60,210)"/>
    </g>
    <rect x="-20" y="200" width="40" height="130" rx="12" fill="#7c2d12" stroke="#d97706" stroke-width="2"/>
    <ellipse cx="0" cy="260" rx="32" ry="8" fill="#a16207" stroke="#fbbf24" stroke-width="1.5"/>
    <path d="M-25,328 C-30,340 -35,355 -20,360 C0,365 20,360 25,355 C35,345 30,332 25,328Z" fill="#7c2d12" stroke="#d97706" stroke-width="1.5"/>
    <text x="0" y="382" text-anchor="middle" fill="#d97706" font-size="11" font-family="monospace" opacity=".6">Amanita sp. — gills</text>
  </g>
  <g fill="#b45309" opacity=".5">
    <ellipse cx="100" cy="80" rx="8" ry="5" transform="rotate(-20,100,80)"/>
    <ellipse cx="180" cy="50" rx="7" ry="4.5" transform="rotate(15,180,50)"/>
    <ellipse cx="650" cy="100" rx="8" ry="5" transform="rotate(-10,650,100)"/>
    <ellipse cx="720" cy="140" rx="7" ry="4.5" transform="rotate(25,720,140)"/>
    <ellipse cx="1200" cy="430" rx="8" ry="5" transform="rotate(-15,1200,430)"/>
  </g>
</svg>
