<svg viewBox="0 0 1280 520" preserveAspectRatio="xMidYMid slice" xmlns="http://www.w3.org/2000/svg" width="100%" height="100%">
  <rect width="1280" height="520" fill="#100800"/>
  <defs>
    <radialGradient id="rg7" cx="50%" cy="50%" r="75%"><stop offset="0%" stop-color="#231200"/><stop offset="100%" stop-color="#080400"/></radialGradient>
  </defs>
  <rect width="1280" height="520" fill="url(#rg7)"/>
  <g transform="translate(200,30)">
    <g transform="translate(440,340)">
      <ellipse cx="0" cy="0" rx="90" ry="120" fill="#92400e" stroke="#fbbf24" stroke-width="2.5"/>
      <g fill="#fbbf24" opacity=".9">
        <path d="M-88,-40 C-70,-48 70,-48 88,-40 C82,-28 70,-24 0,-24 C-70,-24 -82,-28 -88,-40Z"/>
        <path d="M-90,10 C-75,2 75,2 90,10 C85,22 72,26 0,26 C-72,26 -85,22 -90,10Z"/>
        <path d="M-85,58 C-68,50 68,50 85,58 C80,70 68,74 0,74 C-68,74 -80,70 -85,58Z"/>
      </g>
      <g fill="#1a0a00" opacity=".75">
        <path d="M-88,-40 C-82,-28 -70,-24 0,-24 C70,-24 82,-28 88,-40 C75,-50 -75,-50 -88,-40Z"/>
        <path d="M-90,10 C-85,22 -72,26 0,26 C72,26 85,22 90,10 C82,-2 -82,-2 -90,10Z"/>
        <path d="M-85,58 C-80,70 -68,74 0,74 C68,74 80,70 85,58 C75,46 -75,46 -85,58Z"/>
      </g>
      <path d="M-8,120 C-6,140 6,140 8,120" fill="#1a0a00" stroke="#fbbf24" stroke-width="1.5"/>
      <path d="M0,140 L0,170" stroke="#1a0a00" stroke-width="3" stroke-linecap="round"/>
      <g fill="#fef3c7" opacity=".3">
        <rect x="-20" y="20" width="40" height="12" rx="4"/>
        <rect x="-20" y="56" width="40" height="12" rx="4"/>
      </g>
    </g>
    <ellipse cx="440" cy="220" rx="72" ry="60" fill="#7c2d12" stroke="#fb923c" stroke-width="2"/>
    <path d="M400,200 L480,200 L440,168Z" fill="#92400e" stroke="#fbbf24" stroke-width="1.5"/>
    <circle cx="390" cy="200" r="8" fill="#1a0a00" stroke="#fbbf24" stroke-width="1.5"/>
    <circle cx="490" cy="200" r="8" fill="#1a0a00" stroke="#fbbf24" stroke-width="1.5"/>
    <ellipse cx="440" cy="148" rx="58" ry="54" fill="#7c2d12" stroke="#fb923c" stroke-width="2"/>
    <ellipse cx="400" cy="138" rx="22" ry="28" fill="#1a0a00" stroke="#fbbf24" stroke-width="2"/>
    <g fill="none" stroke="#f97316" stroke-width="0.5" opacity=".5">
      <circle cx="400" cy="138" r="8"/><circle cx="390" cy="130" r="5"/><circle cx="408" cy="130" r="5"/>
      <circle cx="392" cy="145" r="5"/><circle cx="408" cy="145" r="5"/>
    </g>
    <ellipse cx="480" cy="138" rx="22" ry="28" fill="#1a0a00" stroke="#fbbf24" stroke-width="2"/>
    <g fill="none" stroke="#f97316" stroke-width="0.5" opacity=".5">
      <circle cx="480" cy="138" r="8"/><circle cx="470" cy="130" r="5"/><circle cx="488" cy="130" r="5"/>
      <circle cx="472" cy="145" r="5"/><circle cx="488" cy="145" r="5"/>
    </g>
    <g fill="#fbbf24" opacity=".9">
      <circle cx="430" cy="110" r="5"/><circle cx="440" cy="105" r="5"/><circle cx="450" cy="110" r="5"/>
    </g>
    <path d="M420,100 C410,80 400,60 385,50 C370,40 360,45 350,38" stroke="#fbbf24" stroke-width="2.5" fill="none" stroke-linecap="round"/>
    <path d="M350,38 C340,32 332,28 325,20 C315,10 305,5 295,2" stroke="#fbbf24" stroke-width="1.5" fill="none" stroke-linecap="round"/>
    <circle cx="295" cy="2" r="7" fill="#fbbf24"/>
    <path d="M460,100 C470,80 480,60 495,50 C510,40 520,45 530,38" stroke="#fbbf24" stroke-width="2.5" fill="none" stroke-linecap="round"/>
    <path d="M530,38 C540,32 548,28 555,20 C565,10 575,5 585,2" stroke="#fbbf24" stroke-width="1.5" fill="none" stroke-linecap="round"/>
    <circle cx="585" cy="2" r="7" fill="#fbbf24"/>
    <path d="M408,196 C390,210 378,225 375,238" stroke="#92400e" stroke-width="3" fill="none" stroke-linecap="round"/>
    <path d="M472,196 C490,210 502,225 505,238" stroke="#92400e" stroke-width="3" fill="none" stroke-linecap="round"/>
    <path d="M440,202 C440,225 438,240 436,260" stroke="#fbbf24" stroke-width="1.5" fill="none" opacity=".6"/>
    <path d="M370,200 C300,160 200,140 120,160 C80,172 60,195 75,218 C100,245 200,240 300,230 C340,224 365,215 370,200Z" fill="rgba(186,230,253,0.18)" stroke="#7dd3fc" stroke-width="1.5"/>
    <g stroke="#7dd3fc" stroke-width="0.8" fill="none" opacity=".5">
      <path d="M370,200 C340,195 310,195 280,200 C260,205 240,212 220,210"/>
      <path d="M360,205 C330,210 300,215 270,218 C245,220 220,225 200,228"/>
      <path d="M350,210 C330,220 310,228 290,235 C265,240 240,242 215,240"/>
      <path d="M300,196 C290,205 282,215 275,228 C268,240 265,252 268,264"/>
      <path d="M250,194 C242,204 236,218 232,232"/>
      <path d="M200,195 C194,205 190,218 188,230"/>
    </g>
    <path d="M370,215 C320,200 260,195 210,215 C180,228 165,250 180,268 C200,288 280,280 340,262 C360,254 372,234 370,215Z" fill="rgba(186,230,253,0.12)" stroke="#93c5fd" stroke-width="1"/>
    <path d="M510,200 C580,160 680,140 760,160 C800,172 820,195 805,218 C780,245 680,240 580,230 C540,224 515,215 510,200Z" fill="rgba(186,230,253,0.18)" stroke="#7dd3fc" stroke-width="1.5"/>
    <g stroke="#7dd3fc" stroke-width="0.8" fill="none" opacity=".5">
      <path d="M510,200 C540,195 570,195 600,200 C620,205 640,212 660,210"/>
      <path d="M520,205 C550,210 580,215 610,218 C635,220 660,225 680,228"/>
      <path d="M580,196 C590,205 598,215 605,228"/>
      <path d="M630,194 C638,204 644,218 648,232"/>
    </g>
    <path d="M510,215 C560,200 620,195 670,215 C700,228 715,250 700,268 C680,288 600,280 540,262 C520,254 508,234 510,215Z" fill="rgba(186,230,253,0.12)" stroke="#93c5fd" stroke-width="1"/>
    <g stroke="#92400e" stroke-width="2.5" fill="none" stroke-linecap="round">
      <path d="M390,240 C360,260 340,285 330,310 C320,330 315,352 310,370"/>
      <path d="M310,370 C305,385 295,395 285,405"/>
      <path d="M385,255 C350,280 325,310 310,340 C295,368 290,392 285,415"/>
      <path d="M285,415 C280,432 268,445 260,460"/>
      <path d="M390,268 C355,295 330,325 315,360 C300,390 295,418 292,445"/>
      <rect x="278" y="380" width="18" height="55" rx="6" fill="#fbbf24" stroke="#fbbf24" stroke-width="1" opacity=".8"/>
      <path d="M490,240 C520,260 540,285 550,310 C560,330 565,352 570,370"/>
      <path d="M570,370 C575,385 585,395 595,405"/>
      <path d="M495,255 C530,280 555,310 570,340 C585,368 590,392 595,415"/>
      <path d="M490,268 C525,295 550,325 565,360 C580,390 585,418 588,445"/>
      <rect x="584" y="380" width="18" height="55" rx="6" fill="#fbbf24" stroke="#fbbf24" stroke-width="1" opacity=".8"/>
    </g>
  </g>
  <g opacity=".25" stroke="#fbbf24" stroke-width="1.2" fill="#b45309" fill-opacity=".15">
    <polygon points="1050,60 1082,79 1082,117 1050,136 1018,117 1018,79"/>
    <polygon points="1082,117 1114,136 1114,174 1082,193 1050,174 1050,136"/>
    <polygon points="1018,117 1050,136 1050,174 1018,193 986,174 986,136"/>
    <polygon points="1114,60 1146,79 1146,117 1114,136 1082,117 1082,79"/>
    <polygon points="1050,193 1082,212 1082,250 1050,269 1018,250 1018,212"/>
    <polygon points="1114,193 1146,212 1146,250 1114,269 1082,250 1082,212"/>
    <polygon points="986,60 1018,79 1018,117 986,136 954,117 954,79"/>
    <polygon points="1146,117 1178,136 1178,174 1146,193 1114,174 1114,136"/>
    <polygon points="1082,269 1114,288 1114,326 1082,345 1050,326 1050,288"/>
    <polygon points="1018,269 1050,288 1050,326 1018,345 986,326 986,288"/>
    <polygon points="1146,269 1178,288 1178,326 1146,345 1114,326 1114,288"/>
  </g>
</svg>
