<svg viewBox="0 0 1280 520" preserveAspectRatio="xMidYMid slice" xmlns="http://www.w3.org/2000/svg" width="100%" height="100%">
  <rect width="1280" height="520" fill="#020c14"/>
  <defs>
    <radialGradient id="rg8" cx="50%" cy="50%" r="80%"><stop offset="0%" stop-color="#06222e"/><stop offset="100%" stop-color="#010910"/></radialGradient>
  </defs>
  <rect width="1280" height="520" fill="url(#rg8)"/>
  <g stroke="#0ea5e9" stroke-width="0.8" fill="none" opacity=".08">
    <path d="M0,80 C100,70 200,90 300,80 C400,70 500,90 600,80 C700,70 800,90 900,80 C1000,70 1100,90 1200,80 C1250,74 1280,76 1280,80"/>
    <path d="M0,160 C100,150 200,170 300,160 C400,150 500,170 600,160 C700,150 800,170 900,160 C1000,150 1100,170 1200,160"/>
    <path d="M0,240 C100,230 200,250 300,240 C400,230 500,250 600,240 C700,230 800,250 900,240 C1000,230 1100,250 1200,240"/>
  </g>
  <g transform="translate(480,260)">
    <circle cx="0" cy="0" r="140" fill="#041c28" stroke="#0891b2" stroke-width="3" opacity=".95"/>
    <circle cx="0" cy="0" r="125" fill="none" stroke="#06b6d4" stroke-width="1.5" opacity=".7"/>
    <circle cx="0" cy="0" r="108" fill="none" stroke="#0891b2" stroke-width="1" opacity=".5"/>
    <g stroke="#22d3ee" stroke-width="1" opacity=".7" fill="#031624">
      <polygon points="0,-40 35,-20 35,20 0,40 -35,20 -35,-20" stroke="#22d3ee" stroke-width="1"/>
      <g opacity=".6">
        <polygon points="0,-82 28,-68 28,-42 0,-28 -28,-42 -28,-68"/>
        <polygon points="48,-66 68,-44 60,-18 32,-10 12,-32 20,-58" transform="rotate(30,0,0)"/>
        <polygon points="48,-66 68,-44 60,-18 32,-10 12,-32 20,-58" transform="rotate(60,0,0)"/>
        <polygon points="48,-66 68,-44 60,-18 32,-10 12,-32 20,-58" transform="rotate(90,0,0)"/>
        <polygon points="48,-66 68,-44 60,-18 32,-10 12,-32 20,-58" transform="rotate(120,0,0)"/>
        <polygon points="48,-66 68,-44 60,-18 32,-10 12,-32 20,-58" transform="rotate(150,0,0)"/>
        <polygon points="48,-66 68,-44 60,-18 32,-10 12,-32 20,-58" transform="rotate(180,0,0)"/>
        <polygon points="48,-66 68,-44 60,-18 32,-10 12,-32 20,-58" transform="rotate(210,0,0)"/>
        <polygon points="48,-66 68,-44 60,-18 32,-10 12,-32 20,-58" transform="rotate(240,0,0)"/>
        <polygon points="48,-66 68,-44 60,-18 32,-10 12,-32 20,-58" transform="rotate(270,0,0)"/>
        <polygon points="48,-66 68,-44 60,-18 32,-10 12,-32 20,-58" transform="rotate(300,0,0)"/>
        <polygon points="48,-66 68,-44 60,-18 32,-10 12,-32 20,-58" transform="rotate(330,0,0)"/>
      </g>
      <g stroke="#0891b2" stroke-width="0.8">
        <line x1="0" y1="-108" x2="0" y2="-40"/><line x1="0" y1="40" x2="0" y2="108"/>
        <line x1="108" y1="0" x2="40" y2="0"/><line x1="-40" y1="0" x2="-108" y2="0"/>
        <line x1="76" y1="-76" x2="28" y2="-28"/><line x1="-28" y1="28" x2="-76" y2="76"/>
        <line x1="-76" y1="-76" x2="-28" y2="-28"/><line x1="28" y1="28" x2="76" y2="76"/>
        <line x1="93" y1="-52" x2="34" y2="-20"/><line x1="52" y1="-93" x2="20" y2="-34"/>
        <line x1="-93" y1="52" x2="-34" y2="20"/><line x1="-52" y1="93" x2="-20" y2="34"/>
        <line x1="93" y1="52" x2="34" y2="20"/><line x1="52" y1="93" x2="20" y2="34"/>
        <line x1="-93" y1="-52" x2="-34" y2="-20"/><line x1="-52" y1="-93" x2="-20" y2="-34"/>
      </g>
    </g>
    <g fill="#854d0e" opacity=".7">
      <ellipse cx="0" cy="-20" rx="18" ry="10"/><ellipse cx="18" cy="10" rx="18" ry="10"/>
      <ellipse cx="-18" cy="10" rx="18" ry="10"/>
    </g>
    <text x="0" y="165" text-anchor="middle" fill="#22d3ee" font-size="11" font-family="monospace" opacity=".6">Coscinodiscus sp.</text>
  </g>
  <g transform="translate(900,150)">
    <path d="M-120,0 C-100,-38 100,-38 120,0 C100,38 -100,38 -120,0Z" fill="#041c28" stroke="#0891b2" stroke-width="2"/>
    <path d="M-100,0 C-80,-26 80,-26 100,0 C80,26 -80,26 -100,0Z" fill="none" stroke="#06b6d4" stroke-width="1"/>
    <line x1="-115" y1="0" x2="115" y2="0" stroke="#7dd3fc" stroke-width="1.5" opacity=".8"/>
    <g stroke="#22d3ee" stroke-width="0.8" opacity=".6">
      <line x1="-90" y1="-14" x2="-90" y2="14"/><line x1="-70" y1="-22" x2="-70" y2="22"/>
      <line x1="-50" y1="-28" x2="-50" y2="28"/><line x1="-30" y1="-32" x2="-30" y2="32"/>
      <line x1="-10" y1="-34" x2="-10" y2="34"/><line x1="10" y1="-34" x2="10" y2="34"/>
      <line x1="30" y1="-32" x2="30" y2="32"/><line x1="50" y1="-28" x2="50" y2="28"/>
      <line x1="70" y1="-22" x2="70" y2="22"/><line x1="90" y1="-14" x2="90" y2="14"/>
    </g>
    <ellipse cx="-30" cy="0" rx="30" ry="14" fill="#854d0e" opacity=".7"/>
    <ellipse cx="30" cy="0" rx="30" ry="14" fill="#854d0e" opacity=".7"/>
    <text x="0" y="55" text-anchor="middle" fill="#06b6d4" font-size="11" font-family="monospace" opacity=".6">Navicula sp.</text>
  </g>
  <g transform="translate(120,260)" opacity=".85">
    <rect x="-18" y="-200" width="36" height="400" rx="18" fill="#041c28" stroke="#22d3ee" stroke-width="1.5"/>
    <path d="M0,-190 C20,-170 20,-140 0,-120 C-20,-100 -20,-70 0,-50 C20,-30 20,0 0,20 C-20,40 -20,70 0,90 C20,110 20,140 0,160 C-20,180 -18,190 0,200" stroke="#22c55e" stroke-width="3" fill="none"/>
    <g stroke="#22d3ee" stroke-width="1.5" opacity=".7">
      <line x1="-18" y1="-120" x2="18" y2="-120"/>
      <line x1="-18" y1="-40" x2="18" y2="-40"/>
      <line x1="-18" y1="40" x2="18" y2="40"/>
      <line x1="-18" y1="120" x2="18" y2="120"/>
    </g>
    <g fill="#4ade80" opacity=".8">
      <circle cx="0" cy="-150" r="6"/><circle cx="0" cy="-70" r="6"/>
      <circle cx="0" cy="10" r="6"/><circle cx="0" cy="90" r="6"/><circle cx="0" cy="170" r="6"/>
    </g>
    <text x="0" y="225" text-anchor="middle" fill="#4ade80" font-size="11" font-family="monospace" opacity=".6">Spirogyra</text>
  </g>
  <g transform="translate(1100,360)" opacity=".8">
    <circle cx="0" cy="0" r="70" fill="#031624" stroke="#06b6d4" stroke-width="2"/>
    <circle cx="0" cy="0" r="64" fill="none" stroke="#22d3ee" stroke-width="1" opacity=".5"/>
    <g fill="#0e4d5e" stroke="#22d3ee" stroke-width="1">
      <circle cx="0" cy="-64" r="9"/><circle cx="32" cy="-55" r="9"/><circle cx="56" cy="-32" r="9"/>
      <circle cx="64" cy="0" r="9"/><circle cx="56" cy="32" r="9"/><circle cx="32" cy="55" r="9"/>
      <circle cx="0" cy="64" r="9"/><circle cx="-32" cy="55" r="9"/><circle cx="-56" cy="32" r="9"/>
      <circle cx="-64" cy="0" r="9"/><circle cx="-56" cy="-32" r="9"/><circle cx="-32" cy="-55" r="9"/>
      <circle cx="16" cy="-30" r="8"/><circle cx="-16" cy="-30" r="8"/>
      <circle cx="30" cy="0" r="8"/><circle cx="-30" cy="0" r="8"/>
      <circle cx="16" cy="30" r="8"/><circle cx="-16" cy="30" r="8"/>
    </g>
    <circle cx="20" cy="10" r="20" fill="#041c28" stroke="#06b6d4" stroke-width="1.5"/>
    <circle cx="-22" cy="-8" r="16" fill="#041c28" stroke="#06b6d4" stroke-width="1.5"/>
    <g fill="#0e4d5e" stroke="#22d3ee" stroke-width="0.8">
      <circle cx="20" cy="-4" r="5"/><circle cx="28" cy="16" r="5"/>
      <circle cx="12" cy="24" r="5"/><circle cx="6" cy="8" r="5"/>
    </g>
    <text x="0" y="88" text-anchor="middle" fill="#06b6d4" font-size="11" font-family="monospace" opacity=".6">Volvox colony</text>
  </g>
</svg>
