<svg viewBox="0 0 1280 520" preserveAspectRatio="xMidYMid slice" xmlns="http://www.w3.org/2000/svg" width="100%" height="100%">
  <rect width="1280" height="520" fill="#07001a"/>
  <defs>
    <radialGradient id="rg10" cx="50%" cy="50%" r="75%"><stop offset="0%" stop-color="#12003a"/><stop offset="100%" stop-color="#040010"/></radialGradient>
    <radialGradient id="tcell" cx="45%" cy="42%" r="60%"><stop offset="0%" stop-color="#2d0060"/><stop offset="100%" stop-color="#14003a"/></radialGradient>
  </defs>
  <rect width="1280" height="520" fill="url(#rg10)"/>
  <g stroke="#7c3aed" stroke-width="1" stroke-dasharray="6,4" fill="none" opacity=".2">
    <line x1="320" y1="260" x2="540" y2="260"/>
    <line x1="740" y1="260" x2="920" y2="200"/>
    <line x1="740" y1="260" x2="1020" y2="340"/>
    <line x1="320" y1="260" x2="160" y2="180"/>
    <line x1="320" y1="260" x2="180" y2="380"/>
  </g>
  <g transform="translate(640,260)">
    <circle cx="0" cy="0" r="100" fill="url(#tcell)" stroke="#7c3aed" stroke-width="3" opacity=".97"/>
    <circle cx="0" cy="0" r="92" fill="none" stroke="#a855f7" stroke-width="1" opacity=".5"/>
    <g fill="#4c1d95" stroke="#c084fc" stroke-width="1.5" opacity=".85">
      <circle cx="0" cy="-100" r="10"/><circle cx="30" cy="-95" r="9"/>
      <circle cx="56" cy="-82" r="10"/><circle cx="77" cy="-63" r="9"/>
      <circle cx="90" cy="-38" r="10"/><circle cx="98" cy="-12" r="9"/>
      <circle cx="100" cy="15" r="10"/><circle cx="94" cy="40" r="9"/>
      <circle cx="82" cy="62" r="10"/><circle cx="64" cy="80" r="9"/>
      <circle cx="38" cy="94" r="10"/><circle cx="10" cy="100" r="9"/>
      <circle cx="-20" cy="99" r="10"/><circle cx="-48" cy="90" r="9"/>
      <circle cx="-72" cy="74" r="10"/><circle cx="-90" cy="50" r="9"/>
      <circle cx="-100" cy="22" r="10"/><circle cx="-100" cy="-8" r="9"/>
      <circle cx="-94" cy="-36" r="10"/><circle cx="-80" cy="-60" r="9"/>
      <circle cx="-60" cy="-80" r="10"/><circle cx="-34" cy="-94" r="9"/>
    </g>
    <g stroke="#e879f9" stroke-width="1.5" fill="none" opacity=".7">
      <path d="M-5,-100 L-5,-118 M-5,-118 L-15,-130 M-5,-118 L5,-130"/>
      <path d="M62,-78 L68,-94 M68,-94 L58,-108 M68,-94 L78,-108" transform="rotate(38,0,0)"/>
      <path d="M96,-26 L104,-40 M104,-40 L94,-54 M104,-40 L114,-54" transform="rotate(76,0,0)"/>
    </g>
    <path d="M-30,-30 C-40,-50 -10,-65 10,-55 C30,-45 42,-28 38,-10 C34,10 20,22 5,20 C-15,18 -26,35 -18,48 C-8,62 15,62 28,50 C42,38 45,18 38,5 C60,15 62,38 52,52 C42,66 22,70 5,65 C-15,60 -28,44 -25,28 C-40,28 -52,12 -48,-8 C-44,-28 -34,-38 -30,-30Z" fill="#1a0050" stroke="#c084fc" stroke-width="1.5"/>
    <circle cx="10" cy="18" r="14" fill="#2d0060" stroke="#e879f9" stroke-width="1"/>
    <g fill="#3b0764" stroke="#a855f7" stroke-width="0.8" opacity=".6">
      <ellipse cx="-55" cy="15" rx="14" ry="8" transform="rotate(-30,-55,15)"/>
      <ellipse cx="55" cy="-20" rx="12" ry="7" transform="rotate(20,55,-20)"/>
      <ellipse cx="40" cy="55" rx="12" ry="7" transform="rotate(40,40,55)"/>
      <circle cx="-30" cy="55" r="6"/><circle cx="-60" cy="-30" r="5"/>
      <circle cx="60" cy="35" r="6"/><circle cx="-70" cy="35" r="5"/>
    </g>
    <g stroke="#6d28d9" stroke-width="0.5" fill="none" opacity=".3">
      <path d="M-80,0 C-60,-20 -20,-10 0,-30 C20,-50 50,-40 70,-20"/>
      <path d="M-70,30 C-50,10 -10,20 10,0 C30,-20 60,-10 75,10"/>
    </g>
  </g>
  <g transform="translate(200,280)" opacity=".88">
    <rect x="-14" y="0" width="28" height="80" rx="10" fill="#1e1b4b" stroke="#6366f1" stroke-width="2"/>
    <rect x="-10" y="20" width="20" height="40" rx="6" fill="#1e1b4b" stroke="#818cf8" stroke-width="1" opacity=".5"/>
    <rect x="-14" y="-20" width="28" height="22" rx="6" fill="#1e1b4b" stroke="#6366f1" stroke-width="1.5"/>
    <path d="M-4,-14 C-2,-10 2,-6 4,-2 C2,2 -2,6 -4,10" stroke="#fbbf24" stroke-width="1.2" fill="none" opacity=".7"/>
    <path d="M4,-14 C2,-10 -2,-6 -4,-2 C-2,2 2,6 4,10" stroke="#fbbf24" stroke-width="1.2" fill="none" opacity=".7"/>
    <path d="M-14,-20 L-65,-80 L-75,-60" stroke="#6366f1" stroke-width="2" fill="none"/>
    <path d="M14,-20 L65,-80 L75,-60" stroke="#6366f1" stroke-width="2" fill="none"/>
    <ellipse cx="-75" cy="-60" rx="22" ry="14" fill="#1e1b4b" stroke="#a78bfa" stroke-width="2"/>
    <text x="-75" y="-56" text-anchor="middle" fill="#c4b5fd" font-size="8" font-family="monospace">Fab</text>
    <ellipse cx="75" cy="-60" rx="22" ry="14" fill="#1e1b4b" stroke="#a78bfa" stroke-width="2"/>
    <text x="75" y="-56" text-anchor="middle" fill="#c4b5fd" font-size="8" font-family="monospace">Fab</text>
    <text x="0" y="105" text-anchor="middle" fill="#818cf8" font-size="11" font-family="monospace" opacity=".7">IgG antibody</text>
  </g>
  <g transform="translate(1040,200)" opacity=".85">
    <circle cx="0" cy="0" r="90" fill="#1a0a0a" stroke="#dc2626" stroke-width="2.5"/>
    <circle cx="0" cy="0" r="80" fill="#0e0505" stroke="#ef4444" stroke-width="1" opacity=".5"/>
    <path d="M-30,-20 C-20,-35 5,-35 15,-20 C25,-5 20,15 5,22 C-10,28 -28,20 -35,5 C-40,-12 -38,-8 -30,-20Z" stroke="#f97316" stroke-width="1.5" fill="#450a0a" opacity=".7"/>
    <g fill="#dc2626" stroke="#fca5a5" stroke-width="1">
      <g transform="rotate(0)"><rect x="-5" y="-100" width="10" height="20" rx="3" fill="#991b1b"/><ellipse cx="0" cy="-108" rx="12" ry="9"/></g>
      <g transform="rotate(30)"><rect x="-5" y="-100" width="10" height="20" rx="3" fill="#991b1b"/><ellipse cx="0" cy="-108" rx="12" ry="9"/></g>
      <g transform="rotate(60)"><rect x="-5" y="-100" width="10" height="20" rx="3" fill="#991b1b"/><ellipse cx="0" cy="-108" rx="12" ry="9"/></g>
      <g transform="rotate(90)"><rect x="-5" y="-100" width="10" height="20" rx="3" fill="#991b1b"/><ellipse cx="0" cy="-108" rx="12" ry="9"/></g>
      <g transform="rotate(120)"><rect x="-5" y="-100" width="10" height="20" rx="3" fill="#991b1b"/><ellipse cx="0" cy="-108" rx="12" ry="9"/></g>
      <g transform="rotate(150)"><rect x="-5" y="-100" width="10" height="20" rx="3" fill="#991b1b"/><ellipse cx="0" cy="-108" rx="12" ry="9"/></g>
      <g transform="rotate(180)"><rect x="-5" y="-100" width="10" height="20" rx="3" fill="#991b1b"/><ellipse cx="0" cy="-108" rx="12" ry="9"/></g>
      <g transform="rotate(210)"><rect x="-5" y="-100" width="10" height="20" rx="3" fill="#991b1b"/><ellipse cx="0" cy="-108" rx="12" ry="9"/></g>
      <g transform="rotate(240)"><rect x="-5" y="-100" width="10" height="20" rx="3" fill="#991b1b"/><ellipse cx="0" cy="-108" rx="12" ry="9"/></g>
      <g transform="rotate(270)"><rect x="-5" y="-100" width="10" height="20" rx="3" fill="#991b1b"/><ellipse cx="0" cy="-108" rx="12" ry="9"/></g>
      <g transform="rotate(300)"><rect x="-5" y="-100" width="10" height="20" rx="3" fill="#991b1b"/><ellipse cx="0" cy="-108" rx="12" ry="9"/></g>
      <g transform="rotate(330)"><rect x="-5" y="-100" width="10" height="20" rx="3" fill="#991b1b"/><ellipse cx="0" cy="-108" rx="12" ry="9"/></g>
    </g>
    <g stroke="#818cf8" stroke-width="1.2" fill="#1e1b4b" opacity=".8">
      <path d="M-88,40 L-115,60 M-115,60 L-128,48 M-115,60 L-122,74"/>
      <path d="M50,-75 L70,-100 M70,-100 L58,-112 M70,-100 L84,-108"/>
    </g>
    <text x="0" y="130" text-anchor="middle" fill="#f87171" font-size="11" font-family="monospace" opacity=".6">virus + neutralizing Ab</text>
  </g>
  <g transform="translate(180,420)" opacity=".7">
    <circle cx="0" cy="0" r="45" fill="#1e1b4b" stroke="#6366f1" stroke-width="2"/>
    <ellipse cx="5" cy="0" rx="18" ry="14" fill="#312e81" stroke="#818cf8" stroke-width="1"/>
    <circle cx="8" cy="2" r="6" fill="#1e1b4b" stroke="#a5b4fc" stroke-width="0.8"/>
    <g stroke="#c7d2fe" stroke-width="1" opacity=".6" fill="none">
      <path d="M-45,0 L-58,0 M-58,0 L-64,-6 M-58,0 L-64,6"/>
      <path d="M0,-45 L0,-58 M0,-58 L-6,-64 M0,-58 L6,-64"/>
    </g>
    <text x="0" y="62" text-anchor="middle" fill="#818cf8" font-size="10" font-family="monospace" opacity=".6">B cell</text>
  </g>
  <g transform="translate(1160,400)" opacity=".7">
    <circle cx="0" cy="0" r="40" fill="#1e1b4b" stroke="#6366f1" stroke-width="1.5"/>
    <g fill="#4338ca" opacity=".8">
      <circle cx="-10" cy="-5" r="8"/><circle cx="10" cy="5" r="7"/>
      <circle cx="-5" cy="12" r="6"/><circle cx="12" cy="-10" r="6"/>
    </g>
    <text x="0" y="56" text-anchor="middle" fill="#818cf8" font-size="10" font-family="monospace" opacity=".6">NK cell</text>
  </g>
</svg>
