<svg viewBox="0 0 1280 520" preserveAspectRatio="xMidYMid slice" xmlns="http://www.w3.org/2000/svg" width="100%" height="100%">
  <rect width="1280" height="520" fill="#0a0005"/>
  <defs>
    <radialGradient id="rg4" cx="50%" cy="50%" r="75%"><stop offset="0%" stop-color="#200018"/><stop offset="100%" stop-color="#060004"/></radialGradient>
  </defs>
  <rect width="1280" height="520" fill="url(#rg4)"/>
  <ellipse cx="640" cy="260" rx="220" ry="200" fill="none" stroke="#be185d" stroke-width="1.5" stroke-dasharray="10,6" opacity=".35"/>
  <g opacity=".6">
    <g fill="#7f1d1d" stroke="#dc2626" stroke-width="1.5">
      <ellipse cx="80" cy="100" rx="38" ry="26"/><ellipse cx="80" cy="100" rx="19" ry="13" fill="#450a0a"/>
      <ellipse cx="200" cy="60" rx="38" ry="26"/><ellipse cx="200" cy="60" rx="19" ry="13" fill="#450a0a"/>
      <ellipse cx="120" cy="430" rx="38" ry="26"/><ellipse cx="120" cy="430" rx="19" ry="13" fill="#450a0a"/>
      <ellipse cx="1160" cy="100" rx="38" ry="26"/><ellipse cx="1160" cy="100" rx="19" ry="13" fill="#450a0a"/>
      <ellipse cx="1100" cy="440" rx="38" ry="26"/><ellipse cx="1100" cy="440" rx="19" ry="13" fill="#450a0a"/>
      <ellipse cx="1200" cy="380" rx="38" ry="26"/><ellipse cx="1200" cy="380" rx="19" ry="13" fill="#450a0a"/>
    </g>
  </g>
  <g transform="translate(640,55)">
    <path d="M-35,0 C-30,-15 -10,-20 0,-18 C15,-16 30,-8 38,5 C30,18 12,22 0,20 C-14,18 -28,12 -35,0Z" fill="#c026d3" stroke="#e879f9" stroke-width="1.5"/>
    <ellipse cx="0" cy="0" rx="10" ry="8" fill="#86198f"/>
    <text x="0" y="40" text-anchor="middle" fill="#e879f9" font-size="11" font-family="monospace" opacity=".7">sporozoite</text>
  </g>
  <g transform="translate(860,130)">
    <circle cx="0" cy="0" r="45" fill="#3b0764" stroke="#a855f7" stroke-width="2"/>
    <circle cx="0" cy="0" r="38" fill="none" stroke="#c084fc" stroke-width="1" stroke-dasharray="4,3"/>
    <g fill="#7e22ce" stroke="#c084fc" stroke-width=".8">
      <circle cx="0" cy="-20" r="9"/><circle cx="18" cy="-10" r="9"/><circle cx="18" cy="10" r="9"/>
      <circle cx="0" cy="20" r="9"/><circle cx="-18" cy="10" r="9"/><circle cx="-18" cy="-10" r="9"/>
      <circle cx="0" cy="0" r="9"/>
    </g>
    <text x="0" y="65" text-anchor="middle" fill="#c084fc" font-size="11" font-family="monospace" opacity=".7">liver schizont</text>
  </g>
  <g transform="translate(1060,290)">
    <circle cx="0" cy="0" r="35" fill="#1e1b4b" stroke="#818cf8" stroke-width="2" opacity=".5" stroke-dasharray="5,3"/>
    <g fill="#4338ca" stroke="#818cf8" stroke-width="1">
      <path d="M-20,-20 C-15,-30 -5,-32 0,-28 C8,-22 10,-12 5,-5 C0,2 -10,5 -18,-2Z"/>
      <path d="M20,-20 C25,-10 22,-2 16,3 C8,10 0,10 -3,4 C8,-2 14,-12 20,-20Z" transform="rotate(60,0,0)"/>
      <path d="M20,-20 C25,-10 22,-2 16,3 C8,10 0,10 -3,4 C8,-2 14,-12 20,-20Z" transform="rotate(120,0,0)"/>
      <path d="M20,-20 C25,-10 22,-2 16,3 C8,10 0,10 -3,4 C8,-2 14,-12 20,-20Z" transform="rotate(180,0,0)"/>
      <path d="M20,-20 C25,-10 22,-2 16,3 C8,10 0,10 -3,4 C8,-2 14,-12 20,-20Z" transform="rotate(240,0,0)"/>
      <path d="M20,-20 C25,-10 22,-2 16,3 C8,10 0,10 -3,4 C8,-2 14,-12 20,-20Z" transform="rotate(300,0,0)"/>
    </g>
    <text x="0" y="55" text-anchor="middle" fill="#818cf8" font-size="11" font-family="monospace" opacity=".7">merozoites</text>
  </g>
  <g transform="translate(860,410)">
    <ellipse cx="0" cy="0" rx="42" ry="30" fill="#7f1d1d" stroke="#ef4444" stroke-width="2"/>
    <ellipse cx="0" cy="0" rx="30" ry="20" fill="#450a0a" stroke="#ef4444" stroke-width="1"/>
    <circle cx="10" cy="-5" r="14" fill="none" stroke="#ef4444" stroke-width="2"/>
    <circle cx="14" cy="-8" r="4" fill="#dc2626"/>
    <text x="0" y="50" text-anchor="middle" fill="#f87171" font-size="11" font-family="monospace" opacity=".7">ring form (RBC)</text>
  </g>
  <g transform="translate(420,410)">
    <path d="M-45,0 C-40,-35 -10,-45 5,-40 C25,-32 35,-15 30,5 C25,25 8,35 -10,30 C-32,20 -48,28 -45,0Z" fill="#064e3b" stroke="#34d399" stroke-width="1.5"/>
    <ellipse cx="-10" cy="0" rx="12" ry="10" fill="#065f46"/>
    <text x="-10" y="50" text-anchor="middle" fill="#34d399" font-size="11" font-family="monospace" opacity=".7">gametocyte</text>
  </g>
  <g transform="translate(220,200)">
    <circle cx="0" cy="0" r="36" fill="#1c1917" stroke="#a8a29e" stroke-width="1.5"/>
    <circle cx="0" cy="0" r="28" fill="#292524" stroke="#d6d3d1" stroke-width="1"/>
    <g fill="#78716c" opacity=".8">
      <circle cx="0" cy="-15" r="7"/><circle cx="13" cy="8" r="7"/><circle cx="-13" cy="8" r="7"/>
    </g>
    <line x1="-20" y1="-30" x2="-45" y2="-60" stroke="#a8a29e" stroke-width="1.5" opacity=".5"/>
    <line x1="20" y1="-30" x2="45" y2="-60" stroke="#a8a29e" stroke-width="1.5" opacity=".5"/>
    <text x="0" y="55" text-anchor="middle" fill="#a8a29e" font-size="11" font-family="monospace" opacity=".7">oocyst (mosquito)</text>
  </g>
</svg>
