<svg viewBox="0 0 1280 520" preserveAspectRatio="xMidYMid slice" xmlns="http://www.w3.org/2000/svg" width="100%" height="100%">
  <rect width="1280" height="520" fill="#030f06"/>
  <defs>
    <radialGradient id="rg3" cx="50%" cy="50%" r="75%"><stop offset="0%" stop-color="#062010"/><stop offset="100%" stop-color="#010802"/></radialGradient>
    <radialGradient id="stem3" cx="50%" cy="50%" r="70%"><stop offset="0%" stop-color="#166534"/><stop offset="100%" stop-color="#052e12"/></radialGradient>
  </defs>
  <rect width="1280" height="520" fill="url(#rg3)"/>
  <circle cx="360" cy="260" r="195" fill="#041a09" stroke="#16a34a" stroke-width="2.5" opacity=".9"/>
  <circle cx="360" cy="260" r="195" fill="none" stroke="#4ade80" stroke-width="5" opacity=".75"/>
  <circle cx="360" cy="260" r="170" fill="none" stroke="#22c55e" stroke-width="2" opacity=".4"/>
  <circle cx="360" cy="260" r="130" fill="none" stroke="#16a34a" stroke-width="2.5" stroke-dasharray="8,5" opacity=".7"/>
  <circle cx="360" cy="260" r="118" fill="none" stroke="#4ade80" stroke-width="1.5" opacity=".5"/>
  <circle cx="360" cy="260" r="48" fill="#0a3d18" stroke="#4ade80" stroke-width="2" opacity=".9"/>
  <g fill="#0d4d1e" stroke="#22c55e" stroke-width="1" opacity=".7">
    <circle cx="360" cy="238" r="12"/><circle cx="378" cy="252" r="11"/>
    <circle cx="370" cy="272" r="12"/><circle cx="350" cy="276" r="11"/>
    <circle cx="342" cy="252" r="12"/>
  </g>
  <g opacity=".92">
    <ellipse cx="360" cy="142" rx="22" ry="30" fill="#b45309" stroke="#fbbf24" stroke-width="1.5"/>
    <ellipse cx="360" cy="152" rx="12" ry="16" fill="#1d4ed8" stroke="#60a5fa" stroke-width="1"/>
    <ellipse cx="458" cy="167" rx="22" ry="30" fill="#b45309" stroke="#fbbf24" stroke-width="1.5" transform="rotate(60,458,167)"/>
    <ellipse cx="456" cy="175" rx="12" ry="16" fill="#1d4ed8" stroke="#60a5fa" stroke-width="1" transform="rotate(60,456,183)"/>
    <ellipse cx="458" cy="353" rx="22" ry="30" fill="#b45309" stroke="#fbbf24" stroke-width="1.5" transform="rotate(120,458,353)"/>
    <ellipse cx="456" cy="345" rx="12" ry="16" fill="#1d4ed8" stroke="#60a5fa" stroke-width="1" transform="rotate(120,456,337)"/>
    <ellipse cx="360" cy="378" rx="22" ry="30" fill="#b45309" stroke="#fbbf24" stroke-width="1.5"/>
    <ellipse cx="360" cy="368" rx="12" ry="16" fill="#1d4ed8" stroke="#60a5fa" stroke-width="1"/>
    <ellipse cx="262" cy="353" rx="22" ry="30" fill="#b45309" stroke="#fbbf24" stroke-width="1.5" transform="rotate(240,262,353)"/>
    <ellipse cx="264" cy="345" rx="12" ry="16" fill="#1d4ed8" stroke="#60a5fa" stroke-width="1" transform="rotate(240,264,337)"/>
    <ellipse cx="262" cy="167" rx="22" ry="30" fill="#b45309" stroke="#fbbf24" stroke-width="1.5" transform="rotate(300,262,167)"/>
    <ellipse cx="264" cy="175" rx="12" ry="16" fill="#1d4ed8" stroke="#60a5fa" stroke-width="1" transform="rotate(300,264,183)"/>
  </g>
  <g fill="none" stroke="#15803d" stroke-width="1" opacity=".4">
    <circle cx="360" cy="84" r="18"/><circle cx="408" cy="96" r="16"/>
    <circle cx="444" cy="122" r="17"/><circle cx="458" cy="160" r="16"/>
    <circle cx="312" cy="96" r="16"/><circle cx="276" cy="122" r="17"/>
    <circle cx="262" cy="160" r="16"/><circle cx="262" cy="360" r="16"/>
    <circle cx="276" cy="398" r="17"/><circle cx="312" cy="424" r="16"/>
    <circle cx="360" cy="436" r="18"/><circle cx="408" cy="424" r="16"/>
    <circle cx="444" cy="398" r="17"/><circle cx="458" cy="360" r="16"/>
  </g>
  <text x="360" y="256" text-anchor="middle" fill="#4ade80" font-size="10" font-family="monospace" opacity=".6">pith</text>
  <text x="360" y="34" text-anchor="middle" fill="#fbbf24" font-size="10" font-family="monospace" opacity=".6">xylem/phloem</text>
  <g transform="translate(780,0)" opacity=".9">
    <path d="M200,80 C300,60 400,60 450,80 C500,100 510,180 500,300 C490,400 400,450 300,460 C200,450 120,400 110,300 C90,180 100,100 200,80Z" fill="#041a09" stroke="#22c55e" stroke-width="2"/>
    <path d="M200,80 C300,60 400,60 450,80 C500,100 510,120 505,140 C400,120 200,120 100,140 C95,120 100,100 200,80Z" fill="#0d4d1e" stroke="#4ade80" stroke-width="1.5"/>
    <g fill="#145a20" stroke="#4ade80" stroke-width="1">
      <rect x="130" y="140" width="20" height="50" rx="3"/><rect x="155" y="140" width="20" height="50" rx="3"/>
      <rect x="180" y="140" width="20" height="50" rx="3"/><rect x="205" y="140" width="20" height="50" rx="3"/>
      <rect x="230" y="140" width="20" height="50" rx="3"/><rect x="255" y="140" width="20" height="50" rx="3"/>
      <rect x="280" y="140" width="20" height="50" rx="3"/><rect x="305" y="140" width="20" height="50" rx="3"/>
      <rect x="330" y="140" width="20" height="50" rx="3"/><rect x="355" y="140" width="20" height="50" rx="3"/>
      <rect x="380" y="140" width="20" height="50" rx="3"/><rect x="405" y="140" width="20" height="50" rx="3"/>
      <g fill="#16a34a" opacity=".8">
        <ellipse cx="140" cy="155" rx="5" ry="3.5"/><ellipse cx="140" cy="170" rx="5" ry="3.5"/>
        <ellipse cx="165" cy="158" rx="5" ry="3.5"/><ellipse cx="165" cy="175" rx="5" ry="3.5"/>
        <ellipse cx="215" cy="155" rx="5" ry="3.5"/><ellipse cx="215" cy="170" rx="5" ry="3.5"/>
        <ellipse cx="290" cy="158" rx="5" ry="3.5"/><ellipse cx="315" cy="155" rx="5" ry="3.5"/>
        <ellipse cx="365" cy="158" rx="5" ry="3.5"/><ellipse cx="415" cy="155" rx="5" ry="3.5"/>
      </g>
    </g>
    <g fill="#0d4020" stroke="#22c55e" stroke-width="1" opacity=".85">
      <circle cx="150" cy="250" r="18"/><circle cx="195" cy="240" r="16"/>
      <circle cx="240" cy="255" r="17"/><circle cx="285" cy="245" r="16"/>
      <circle cx="330" cy="258" r="17"/><circle cx="375" cy="248" r="16"/>
      <circle cx="420" cy="255" r="17"/>
      <circle cx="172" cy="290" r="16"/><circle cx="218" cy="280" r="15"/>
      <circle cx="262" cy="295" r="16"/><circle cx="308" cy="285" r="15"/>
      <circle cx="352" cy="298" r="16"/><circle cx="398" cy="288" r="15"/>
    </g>
    <ellipse cx="300" cy="350" rx="22" ry="60" fill="#b45309" stroke="#fbbf24" stroke-width="1.5" opacity=".8"/>
    <ellipse cx="300" cy="340" rx="12" ry="32" fill="#1d4ed8" stroke="#60a5fa" stroke-width="1" opacity=".8"/>
    <path d="M110,300 C120,380 200,440 300,450 C400,440 480,380 490,300 C400,320 200,320 110,300Z" fill="#062010" stroke="#4ade80" stroke-width="1.5"/>
    <g fill="#041a09" stroke="#4ade80" stroke-width="1">
      <ellipse cx="170" cy="388" rx="10" ry="5"/><ellipse cx="240" cy="408" rx="10" ry="5"/>
      <ellipse cx="310" cy="418" rx="10" ry="5"/><ellipse cx="380" cy="408" rx="10" ry="5"/>
      <ellipse cx="430" cy="388" rx="10" ry="5"/>
    </g>
  </g>
</svg>
